<svg width="204" height="105" viewBox="0 0 204 105" fill="none" xmlns="http://www.w3.org/2000/svg">
<path fill-rule="evenodd" clip-rule="evenodd" d="M114.381 5.25244L135.786 6.66627C141.583 7.06215 143.704 12.3216 147.182 15.6158C148.37 16.7469 146.786 17.9345 145.556 18.2314C143.314 18.8297 141.016 19.1898 138.699 19.3059C123.316 19.5887 107.934 19.5604 93.4562 13.0427C92.1414 12.4489 89.7803 12.7599 89.7803 10.8936C89.7803 8.50426 91.8445 7.18939 94.0218 6.7511C98.2078 5.88453 102.472 5.44868 106.746 5.45038H107.906C110.055 5.45038 112.147 5.45038 114.353 5.45038L114.381 5.25244Z" fill="black"/>
<path fill-rule="evenodd" clip-rule="evenodd" d="M31.9688 32.9071C34.7964 27.6052 38.8541 26.1207 42.1201 23.7878C42.3321 22.6002 41.2435 22.9537 40.8193 22.5861C39.8297 21.6954 37.5958 22.374 37.5958 20.3805C37.5958 18.387 39.3348 17.8073 40.8193 17.3125C42.3039 16.8176 44.0429 15.2342 44.9195 17.567C46.0929 20.9036 46.913 18.7405 47.8602 17.6377C50.7554 13.9889 54.2046 10.8164 58.0822 8.23568C64.3031 4.34764 70.8067 2.86311 77.8759 6.36942C82.4426 8.65983 82.5698 9.40916 78.6394 12.4065C77.1266 13.5517 75.5148 14.5555 72.7013 16.5207H86.9669C68.2053 19.0374 48.8358 18.8818 31.9688 32.9071Z" fill="black"/>
<path fill-rule="evenodd" clip-rule="evenodd" d="M90.7136 18.7688C95.6337 19.3061 100.794 19.1364 104.583 23.1941C105.658 24.3393 107.029 25.6824 106.393 27.3508C105.757 29.0191 103.89 27.9587 102.604 28.2698C99.2531 29.0898 95.5347 26.757 92.2829 30.1784C91.1519 31.4085 82.6123 25.9369 81.7923 23.8303C81.5964 23.434 81.4961 22.9972 81.4996 22.5551C81.5031 22.113 81.6102 21.6779 81.8123 21.2847C82.0144 20.8915 82.3059 20.5511 82.6633 20.291C83.0208 20.0308 83.4343 19.8581 83.8706 19.7868C85.7367 19.127 87.7022 18.7922 89.6815 18.7971C90.0208 18.7971 90.3742 18.7971 90.7136 18.7971V18.7688Z" fill="black"/>
<path fill-rule="evenodd" clip-rule="evenodd" d="M133.835 3.72549C118.622 3.2872 103.353 2.01475 88.0412 4.48896C83.2765 5.25243 78.8371 2.01475 73.9028 1.91578C93.9793 -0.00702938 113.971 -1.87329 133.835 3.72549Z" fill="black"/>
<path fill-rule="evenodd" clip-rule="evenodd" d="M151.664 17.666C155.043 19.0798 157.899 20.8189 158.931 24.3534C159.369 25.7673 159.68 29.0474 158.45 28.5101C155.835 27.3932 151.537 30.6591 150.505 25.8097C150.046 23.0405 150.451 20.1972 151.664 17.666Z" fill="black"/>
<path d="M10.4116 77.484C14.2163 77.484 17.2262 74.9921 17.9294 71.2909L20.5892 57.2924C21.2924 53.5912 19.2294 51.0993 15.4247 51.0993C11.62 51.0993 8.61006 53.5912 7.90683 57.2924L5.24711 71.2909C4.54389 74.9921 6.60689 77.484 10.4116 77.484ZM11.1079 73.8194C9.65312 73.8194 8.89466 72.9033 9.20101 71.2909L11.8607 57.2924C12.1671 55.68 13.2737 54.7638 14.7284 54.7638C16.1832 54.7638 16.9416 55.68 16.6353 57.2924L13.9755 71.2909C13.6692 72.9033 12.5626 73.8194 11.1079 73.8194ZM20.8314 77.1175H31.8352L32.5314 73.453H25.4815L29.6591 51.4658H25.7052L20.8314 77.1175ZM40.7564 77.4807C44.5275 77.4807 47.5109 75.0109 48.2079 71.3423L50.8442 57.4674C51.5412 53.7988 49.4964 51.329 45.7253 51.329C41.9542 51.329 38.9708 53.7988 38.2738 57.4674L35.6375 71.3423C34.9405 75.0109 36.9853 77.4807 40.7564 77.4807ZM41.4465 73.8486C40.0046 73.8486 39.2529 72.9405 39.5565 71.3423L42.1928 57.4674C42.4964 55.8692 43.5933 54.9611 45.0352 54.9611C46.477 54.9611 47.2288 55.8692 46.9252 57.4674L44.2889 71.3423C43.9853 72.9405 42.8884 73.8486 41.4465 73.8486ZM71.1852 51.6922L65.7766 68.8724L66.8965 51.6922H62.9036L57.495 68.8724L58.6148 51.6922H54.6589L53.6361 77.1175H57.9618L63.2137 60.3731L62.1027 77.1175H66.4284L75.0673 51.6922H71.1852ZM79.1363 77.4807C82.9074 77.4807 85.8907 75.0109 86.5878 71.3423L89.224 57.4674C89.921 53.7988 87.8762 51.329 84.1051 51.329C80.334 51.329 77.3506 53.7988 76.6536 57.4674L74.0174 71.3423C73.3203 75.0109 75.3651 77.4807 79.1363 77.4807ZM79.8264 73.8486C78.3845 73.8486 77.6327 72.9405 77.9364 71.3423L80.5726 57.4674C80.8763 55.8692 81.9731 54.9611 83.415 54.9611C84.8569 54.9611 85.6086 55.8692 85.305 57.4674L82.6687 71.3423C82.3651 72.9405 81.2683 73.8486 79.8264 73.8486ZM102.33 77.1175L101.2 65.7488C103.094 64.7317 104.437 62.9157 104.886 60.5547L105.417 57.7579C106.114 54.0894 104.166 51.6922 100.432 51.6922H94.2949L89.4641 77.1175H93.3831L95.3775 66.6205H97.4109L98.2633 77.1175H102.33ZM97.5238 55.3244H99.5572C101.073 55.3244 101.795 56.1961 101.512 57.6853L100.953 60.6274C100.67 62.1166 99.6169 62.9883 98.1011 62.9883H96.0676L97.5238 55.3244ZM114.108 77.1175H118.101L118.643 51.6922H113.393L104.274 77.1175H108.193L110.113 71.4876H114.328L114.108 77.1175ZM111.334 67.7828L114.946 57.1405L114.514 67.7828H111.334ZM133.281 51.6922L128.332 61.3901L127.143 51.6922H122.966L125.407 66.4752L123.385 77.1175H127.304L129.326 66.4752L137.385 51.6922H133.281Z" fill="#C62610"/>
<path d="M144.642 77.1175H148.67L149.217 51.4658H143.92L134.72 77.1175H138.674L140.611 71.4375H144.863L144.642 77.1175ZM141.843 67.6997L145.487 56.9626L145.051 67.6997H141.843ZM157.589 77.4807C161.175 77.4807 164.071 75.0835 164.747 71.5239L168.515 51.6922H164.67L160.902 71.5239C160.619 73.0131 159.536 73.8486 158.279 73.8486C157.022 73.8486 156.256 73.0131 156.539 71.5239L160.307 51.6922H156.388L152.62 71.5239C151.944 75.0835 154.002 77.4807 157.589 77.4807ZM170.692 55.3244H174.981L170.84 77.1175H174.759L178.9 55.3244H183.188L183.878 51.6922H171.382L170.692 55.3244ZM187.953 77.4807C191.724 77.4807 194.708 75.0109 195.405 71.3423L198.041 57.4674C198.738 53.7988 196.693 51.329 192.922 51.329C189.151 51.329 186.168 53.7988 185.47 57.4674L182.834 71.3423C182.137 75.0109 184.182 77.4807 187.953 77.4807ZM188.643 73.8486C187.201 73.8486 186.45 72.9405 186.753 71.3423L189.389 57.4674C189.693 55.8692 190.79 54.9611 192.232 54.9611C193.674 54.9611 194.426 55.8692 194.122 57.4674L191.486 71.3423C191.182 72.9405 190.085 73.8486 188.643 73.8486Z" fill="#0D5619"/>
<path fill-rule="evenodd" clip-rule="evenodd" d="M23.9999 87.4077H33.958L32.9181 95.7114H22.96L23.9999 87.4077Z" fill="#0D5619"/>
<path fill-rule="evenodd" clip-rule="evenodd" d="M32.9022 95.3806H42.8603L41.8204 103.684H31.8623L32.9022 95.3806Z" fill="#0D5619"/>
<path fill-rule="evenodd" clip-rule="evenodd" d="M3.92616 87.4077H13.8843L12.8443 95.7114H2.88623L3.92616 87.4077Z" fill="#0D5619"/>
<path fill-rule="evenodd" clip-rule="evenodd" d="M12.9862 95.7114H22.9443L21.9044 104.015H11.9463L12.9862 95.7114Z" fill="#C62610"/>
<path fill-rule="evenodd" clip-rule="evenodd" d="M43.9632 85.6272L194.942 85.7533V95.2071C194.942 97.7145 193.946 100.119 192.173 101.892C190.4 103.665 187.995 104.661 185.488 104.661H51.3845L52.4402 95.3647H42.876L43.9632 85.6272Z" fill="#0D5619"/>
<path d="M70.0734 94.1561C70.7735 93.7604 71.154 93.0754 71.154 92.1165V91.5533C71.154 90.016 70.1647 89.0115 68.6274 89.0115H66.0703V99.666H68.7644C70.3017 99.666 71.291 98.6614 71.291 97.1241V96.2566C71.291 95.2368 70.8496 94.5214 70.0734 94.1561ZM68.5513 90.5336C69.1753 90.5336 69.5406 90.8989 69.5406 91.5229V92.2839C69.5406 93.0602 69.1753 93.4255 68.3991 93.4255H67.6837V90.5336H68.5513ZM69.6776 97.1546C69.6776 97.7786 69.3123 98.1439 68.6883 98.1439H67.6837V94.9476H68.5361C69.3123 94.9476 69.6776 95.3129 69.6776 96.0891V97.1546ZM75.2097 99.8182C76.6861 99.8182 77.6907 98.8137 77.6907 97.322V89.0115H76.1077V97.322C76.1077 97.9461 75.7272 98.2961 75.2097 98.2961C74.6922 98.2961 74.3116 97.9461 74.3116 97.322V89.0115H72.6982V97.322C72.6982 98.8137 73.7332 99.8182 75.2097 99.8182ZM83.0567 89.0115L81.7781 93.0754L80.53 89.0115H78.8101L80.9714 95.2063V99.666H82.5848V95.2063L84.7462 89.0115H83.0567Z" fill="white"/>
<path d="M110.188 99.8182C111.725 99.8182 112.791 98.7223 112.791 97.2003C112.791 96.0283 112.289 95.252 110.736 93.6995C109.595 92.5579 109.26 92.0709 109.26 91.4011C109.26 90.7314 109.579 90.3813 110.142 90.3813C110.706 90.3813 111.025 90.8075 111.025 91.6294V91.9339L112.578 91.7664V91.4925C112.578 89.8943 111.665 88.8593 110.127 88.8593C108.59 88.8593 107.677 89.8943 107.677 91.4772C107.677 92.6492 108.133 93.4712 109.732 94.978C110.934 96.1196 111.208 96.6066 111.208 97.2764C111.208 97.9004 110.812 98.2961 110.173 98.2961C109.534 98.2961 109.138 97.8243 109.138 97.048V96.6523L107.585 96.8197V97.2003C107.585 98.7223 108.651 99.8182 110.188 99.8182ZM114.164 99.666H118.745V98.1439H115.777V95.0237H118.136V93.5016H115.777V90.5336H118.745V89.0115H114.164V99.666ZM120.095 99.666H124.585V98.1439H121.708V89.0115H120.095V99.666ZM125.832 99.666H130.322V98.1439H127.446V89.0115H125.832V99.666Z" fill="white"/>
<path d="M155.362 99.8182C156.9 99.8182 157.965 98.7223 157.965 97.2003C157.965 96.0283 157.463 95.252 155.91 93.6995C154.769 92.5579 154.434 92.0709 154.434 91.4011C154.434 90.7314 154.754 90.3813 155.317 90.3813C155.88 90.3813 156.2 90.8075 156.2 91.6294V91.9339L157.752 91.7664V91.4925C157.752 89.8943 156.839 88.8593 155.302 88.8593C153.764 88.8593 152.851 89.8943 152.851 91.4772C152.851 92.6492 153.308 93.4712 154.906 94.978C156.108 96.1196 156.382 96.6066 156.382 97.2764C156.382 97.9004 155.986 98.2961 155.347 98.2961C154.708 98.2961 154.312 97.8243 154.312 97.048V96.6523L152.76 96.8197V97.2003C152.76 98.7223 153.825 99.8182 155.362 99.8182ZM165.595 89.0115L164.712 96.2109L163.829 89.0115H162.186L161.303 96.2109L160.42 89.0115H158.791L160.359 99.666H162.14L162.992 92.6492L163.845 99.666H165.625L167.193 89.0115H165.595ZM171.639 99.666H173.283L171.517 89.0115H169.356L167.59 99.666H169.204L169.554 97.3068H171.289L171.639 99.666ZM169.767 95.7543L170.421 91.2946L171.076 95.7543H169.767ZM174.529 99.666H176.143V95.3433H177.056C178.593 95.3433 179.582 94.3387 179.582 92.8014V91.5533C179.582 90.016 178.593 89.0115 177.056 89.0115H174.529V99.666ZM176.143 93.8212V90.5336H176.98C177.604 90.5336 177.969 90.8989 177.969 91.5229V92.8319C177.969 93.4559 177.604 93.8212 176.98 93.8212H176.143Z" fill="white"/>
<path fill-rule="evenodd" clip-rule="evenodd" d="M142.457 97.3816C142.984 97.3847 143.501 97.2312 143.941 96.9405C144.381 96.6498 144.725 96.235 144.929 95.7487C145.132 95.2624 145.187 94.7265 145.086 94.2089C144.986 93.6914 144.733 93.2154 144.361 92.8414C143.99 92.4675 143.515 92.2123 142.998 92.1082C142.481 92.0042 141.945 92.056 141.458 92.2571C140.97 92.4582 140.553 92.7995 140.26 93.2377C139.967 93.6759 139.81 94.1914 139.81 94.7187C139.81 95.4222 140.088 96.0972 140.584 96.5961C141.08 97.095 141.754 97.3774 142.457 97.3816Z" fill="white"/>
<path fill-rule="evenodd" clip-rule="evenodd" d="M95.5026 97.3816C96.0299 97.3847 96.5463 97.2312 96.9862 96.9405C97.4262 96.6498 97.7699 96.235 97.9739 95.7487C98.1779 95.2624 98.2329 94.7265 98.1319 94.2089C98.0309 93.6914 97.7786 93.2154 97.4068 92.8414C97.035 92.4675 96.5606 92.2123 96.0436 92.1082C95.5267 92.0042 94.9905 92.056 94.503 92.2571C94.0155 92.4582 93.5987 92.7995 93.3054 93.2377C93.0121 93.6759 92.8555 94.1914 92.8555 94.7187C92.8555 95.4222 93.1338 96.0972 93.6298 96.5961C94.1258 97.095 94.7991 97.3774 95.5026 97.3816Z" fill="white"/>
</svg>
