<svg width="20" height="20" viewBox="0 0 20 20" fill="none" xmlns="http://www.w3.org/2000/svg">
<g id="4. Handset" clip-path="url(#clip0_1178_5889)">
<path id="Vector (Stroke)" fill-rule="evenodd" clip-rule="evenodd" d="M3.33322 2.49967C2.84831 2.49967 2.54115 2.87797 2.57788 3.24846C3.31955 10.7291 9.27042 16.68 16.7511 17.4217C17.1216 17.4584 17.4999 17.1512 17.4999 16.6663V13.7009C17.4999 13.3422 17.2704 13.0238 16.9301 12.9104L14.0469 11.9493C13.7474 11.8495 13.4173 11.9274 13.1941 12.1506L12.7326 12.6121C12.1804 13.1643 11.3008 13.2699 10.6345 12.8141C9.05851 11.736 8.14072 10.8242 7.16189 9.35045C6.71932 8.68411 6.83523 7.81915 7.37747 7.27692L7.84894 6.80545C8.07213 6.58225 8.15007 6.25211 8.05025 5.95267L7.08919 3.06948C6.97576 2.7292 6.65731 2.49967 6.29862 2.49967H3.33322ZM0.919348 3.41289C0.77445 1.95141 1.97718 0.833008 3.33322 0.833008H6.29862C7.3747 0.833008 8.33005 1.52158 8.67033 2.54244L9.63139 5.42562C9.93084 6.32396 9.69703 7.31438 9.02745 7.98396L8.56335 8.44806C9.40478 9.71105 10.1618 10.4697 11.5599 11.4278L12.0156 10.9721C12.6852 10.3025 13.6756 10.0687 14.5739 10.3682L17.4571 11.3292C18.478 11.6695 19.1666 12.6249 19.1666 13.7009V16.6663C19.1666 18.0224 18.0482 19.2251 16.5867 19.0802C8.31555 18.2602 1.73938 11.684 0.919348 3.41289ZM14.1666 3.33301C13.7063 3.33301 13.3332 2.95991 13.3332 2.49967C13.3332 2.03944 13.7063 1.66634 14.1666 1.66634H17.4999C17.9601 1.66634 18.3332 2.03944 18.3332 2.49967V5.83301C18.3332 6.29324 17.9601 6.66634 17.4999 6.66634C17.0397 6.66634 16.6666 6.29324 16.6666 5.83301V4.51152L13.0891 8.08893C12.7637 8.41437 12.2361 8.41437 11.9106 8.08893C11.5852 7.76349 11.5852 7.23586 11.9106 6.91042L15.488 3.33301H14.1666Z" fill="#282828"/>
</g>
<defs>
<clipPath id="clip0_1178_5889">
<rect width="20" height="20" fill="white"/>
</clipPath>
</defs>
</svg>
