<svg width="11" height="11" viewBox="0 0 11 11" fill="none" xmlns="http://www.w3.org/2000/svg">
<g clip-path="url(#clip0_1225_2658)">
<path fill-rule="evenodd" clip-rule="evenodd" d="M4.17297 0.636443C4.66576 0.0603132 5.55656 0.0603136 6.04935 0.636443L6.25941 0.882028C6.35985 0.999463 6.51762 1.05073 6.66791 1.01476L6.98221 0.939547C7.71952 0.763101 8.4402 1.2867 8.50023 2.04245L8.52582 2.36461C8.53806 2.51865 8.63556 2.65286 8.77829 2.7121L9.07677 2.83599C9.77698 3.12663 10.0523 3.97383 9.6566 4.62053L9.48795 4.8962C9.4073 5.02802 9.4073 5.19391 9.48795 5.32573L9.6566 5.6014C10.0523 6.2481 9.77698 7.0953 9.07677 7.38594L8.77829 7.50983C8.63556 7.56907 8.53806 7.70328 8.52582 7.85732L8.50023 8.17948C8.4402 8.93523 7.71952 9.45883 6.98221 9.28238L6.66791 9.20717C6.51763 9.1712 6.35986 9.22247 6.25941 9.3399L6.04935 9.58549C5.55656 10.1616 4.66576 10.1616 4.17297 9.58549L3.96291 9.3399C3.86247 9.22247 3.7047 9.1712 3.55441 9.20717L3.24011 9.28238C2.5028 9.45883 1.78212 8.93523 1.72209 8.17948L1.6965 7.85732C1.68426 7.70328 1.58676 7.56907 1.44403 7.50983L1.14555 7.38594C0.445343 7.0953 0.170069 6.2481 0.565721 5.6014L0.734375 5.32573C0.815022 5.19391 0.815022 5.02802 0.734375 4.8962L0.565721 4.62053C0.170069 3.97383 0.445342 3.12662 1.14555 2.83599L1.44403 2.7121C1.58676 2.65286 1.68426 2.51865 1.6965 2.36461L1.72209 2.04245C1.78212 1.2867 2.5028 0.763101 3.24011 0.939547L3.55441 1.01476C3.7047 1.05073 3.86247 0.999463 3.96291 0.882028L4.17297 0.636443ZM5.42389 1.17142C5.25963 0.97938 4.96269 0.97938 4.79843 1.17142L4.58837 1.41701C4.28703 1.76931 3.81372 1.9231 3.36285 1.8152L3.04856 1.73999C2.80279 1.68118 2.56256 1.85571 2.54255 2.10763L2.51696 2.42978C2.48025 2.89192 2.18773 3.29454 1.75955 3.47227L1.46107 3.59616C1.22767 3.69303 1.13591 3.97544 1.2678 4.191L1.43645 4.46667C1.67839 4.86213 1.67839 5.3598 1.43645 5.75526L1.2678 6.03093C1.13591 6.24649 1.22767 6.5289 1.46107 6.62577L1.75955 6.74966C2.18773 6.92738 2.48025 7.33001 2.51696 7.79215L2.54255 8.1143C2.56256 8.36622 2.80279 8.54075 3.04856 8.48194L3.36285 8.40672C3.81372 8.29883 4.28703 8.45262 4.58837 8.80492L4.79843 9.05051C4.96269 9.24255 5.25963 9.24255 5.42389 9.05051L5.63395 8.80492C5.93529 8.45262 6.4086 8.29883 6.85947 8.40672L7.17376 8.48194C7.41953 8.54075 7.65976 8.36622 7.67977 8.1143L7.70536 7.79215C7.74207 7.33001 8.03459 6.92738 8.46277 6.74966L8.76125 6.62577C8.99465 6.52889 9.08641 6.24649 8.95452 6.03093L8.78587 5.75526C8.54393 5.3598 8.54393 4.86213 8.78587 4.46667L8.95452 4.191C9.08641 3.97544 8.99465 3.69303 8.76125 3.59616L8.46277 3.47227C8.03459 3.29454 7.74207 2.89192 7.70536 2.42978L7.67977 2.10763C7.65976 1.85571 7.41953 1.68118 7.17376 1.73999L6.85947 1.8152C6.4086 1.9231 5.93529 1.76931 5.63395 1.41701L5.42389 1.17142Z" fill="white"/>
<path fill-rule="evenodd" clip-rule="evenodd" d="M6.90488 3.95317C7.00715 4.05544 7.00715 4.22125 6.90488 4.32352L4.54798 6.68043C4.44571 6.7827 4.27989 6.7827 4.17762 6.68043L3.13011 5.63291C3.02784 5.53064 3.02784 5.36483 3.13011 5.26256C3.23238 5.16029 3.39819 5.16029 3.50046 5.26256L4.3628 6.1249L6.53453 3.95317C6.6368 3.8509 6.80261 3.8509 6.90488 3.95317Z" fill="white" stroke="white" stroke-width="0.411523"/>
</g>
<defs>
<clipPath id="clip0_1225_2658">
<rect width="9.87654" height="9.87654" fill="white" transform="translate(0.172852 0.172852)"/>
</clipPath>
</defs>
</svg>
