<svg width="24" height="24" viewBox="0 0 24 24" fill="none" xmlns="http://www.w3.org/2000/svg">
<g id="40. Clip" clip-path="url(#clip0_1178_5789)">
<path id="Vector (Stroke)" fill-rule="evenodd" clip-rule="evenodd" d="M3.24255 11.021C2.85202 10.6305 2.85202 9.99734 3.24255 9.60682L10.3136 2.53575C13.0473 -0.19792 17.4794 -0.19792 20.2131 2.53575C22.9468 5.26942 22.9468 9.70157 20.2131 12.4352L11.0207 21.6276C9.0681 23.5803 5.90228 23.5803 3.94965 21.6276C1.99703 19.675 1.99703 16.5092 3.94965 14.5566L11.7278 6.77839C12.8994 5.60682 14.7989 5.60682 15.9705 6.77839C17.142 7.94996 17.142 9.84946 15.9705 11.021L10.3136 16.6779C9.92309 17.0684 9.28993 17.0684 8.8994 16.6779C8.50888 16.2874 8.50888 15.6542 8.8994 15.2637L14.5563 9.60682C14.9468 9.21629 14.9468 8.58313 14.5563 8.1926C14.1657 7.80208 13.5326 7.80208 13.142 8.1926L5.36387 15.9708C4.19229 17.1424 4.1923 19.0418 5.36387 20.2134C6.53544 21.385 8.43494 21.385 9.60651 20.2134L18.7989 11.021C20.7515 9.06841 20.7515 5.90259 18.7989 3.94996C16.8463 1.99734 13.6804 1.99734 11.7278 3.94996L4.65676 11.021C4.26624 11.4116 3.63307 11.4116 3.24255 11.021Z" fill="#282828" fill-opacity="0.6"/>
</g>
<defs>
<clipPath id="clip0_1178_5789">
<rect width="24" height="24" fill="white"/>
</clipPath>
</defs>
</svg>
