<svg width="20" height="20" viewBox="0 0 20 20" fill="none" xmlns="http://www.w3.org/2000/svg">
<path fill-rule="evenodd" clip-rule="evenodd" d="M10.0001 2.49998C8.15915 2.49998 6.66676 3.99236 6.66676 5.83331C6.66676 7.67426 8.15915 9.16665 10.0001 9.16665C11.841 9.16665 13.3334 7.67426 13.3334 5.83331C13.3334 3.99236 11.841 2.49998 10.0001 2.49998ZM13.1453 9.72041C14.2768 8.80373 15.0001 7.40299 15.0001 5.83331C15.0001 3.07189 12.7615 0.833313 10.0001 0.833313C7.23867 0.833313 5.0001 3.07189 5.0001 5.83331C5.0001 7.40299 5.72341 8.80373 6.85492 9.72041C3.61558 10.9036 1.23116 13.8622 0.878527 17.4189C0.779037 18.4224 1.60429 19.1666 2.5001 19.1666H17.5001C18.3959 19.1666 19.2212 18.4224 19.1217 17.4189C18.769 13.8622 16.3846 10.9036 13.1453 9.72041ZM10.0001 10.8333C6.1398 10.8333 2.95981 13.7504 2.5458 17.5H17.4544C17.0404 13.7504 13.8604 10.8333 10.0001 10.8333Z" fill="#282828"/>
</svg>
