<svg width="20" height="14" viewBox="0 0 20 14" fill="none" xmlns="http://www.w3.org/2000/svg">
<path fill-rule="evenodd" clip-rule="evenodd" d="M0.259199 1.72396C0.666853 0.901583 1.5163 0.333313 2.5 0.333313H17.5C18.4837 0.333313 19.3331 0.901584 19.7408 1.72396C19.907 2.0592 20 2.43659 20 2.83331V11.1666C20 12.5474 18.8807 13.6666 17.5 13.6666H2.5C1.11929 13.6666 0 12.5474 0 11.1666V2.83331C0 2.43659 0.0930192 2.0592 0.259199 1.72396ZM2.57361 1.99998L9.60096 5.83308C9.84969 5.96875 10.1503 5.96875 10.399 5.83308L17.4264 1.99998H2.57361ZM18.3333 3.40376L11.1971 7.29624C10.4509 7.70325 9.54906 7.70325 8.80287 7.29624L1.66667 3.40376V11.1666C1.66667 11.6269 2.03976 12 2.5 12H17.5C17.9602 12 18.3333 11.6269 18.3333 11.1666V3.40376Z" fill="#282828" fill-opacity="0.8"/>
</svg>
