<svg width="24" height="20" viewBox="0 0 24 20" fill="none" xmlns="http://www.w3.org/2000/svg">
<path fill-rule="evenodd" clip-rule="evenodd" d="M20.2527 3.66714C18.3587 1.77313 15.3434 1.60613 13.2518 3.2794L12 4.28086L10.7482 3.2794C8.65658 1.60613 5.64131 1.77313 3.74729 3.66714C1.81816 5.59628 1.7014 8.64468 3.50893 10.6137C5.0821 12.3274 6.91486 14.2256 8.56475 15.6887C9.39151 16.4219 10.1498 17.0255 10.7912 17.4401C11.4834 17.8876 11.8696 18.0002 12 18.0002C12.1304 18.0002 12.5166 17.8876 13.2088 17.4401C13.8501 17.0255 14.6085 16.4219 15.4352 15.6887C17.0851 14.2256 18.9179 12.3274 20.4911 10.6137C22.2986 8.64468 22.1818 5.59627 20.2527 3.66714ZM12.0024 1.71766C14.8898 -0.592237 19.0523 -0.3617 21.6669 2.25293C24.3141 4.90016 24.5336 9.16751 21.9644 11.9662C20.3753 13.6973 18.4885 15.6542 16.7622 17.1851C15.9009 17.9489 15.057 18.6269 14.2946 19.1197C13.583 19.5797 12.7639 20.0002 12 20.0002C11.2361 20.0002 10.417 19.5797 9.70541 19.1197C8.94296 18.6269 8.09908 17.9489 7.23777 17.1851C5.51151 15.6542 3.62473 13.6973 2.0356 11.9662C-0.533577 9.16751 -0.314154 4.90016 2.33308 2.25293C4.94771 -0.3617 9.11019 -0.592237 11.9976 1.71766L12 1.71961L12.0024 1.71766Z" fill="#E63F48"/>
<path d="M13.2518 3.2794C15.3434 1.60613 18.3587 1.77313 20.2527 3.66714C22.1818 5.59627 22.2986 8.64468 20.4911 10.6137C18.9179 12.3274 17.0851 14.2256 15.4352 15.6887C14.6085 16.4219 13.8501 17.0255 13.2088 17.4401C12.5166 17.8876 12.1304 18.0002 12 18.0002C11.8696 18.0002 11.4834 17.8876 10.7912 17.4401C10.1498 17.0255 9.39151 16.4219 8.56475 15.6887C6.91486 14.2256 5.0821 12.3274 3.50893 10.6137C1.7014 8.64468 1.81816 5.59628 3.74729 3.66714C5.64131 1.77313 8.65658 1.60613 10.7482 3.2794L12 4.28086L13.2518 3.2794Z" fill="#E63F48"/>
</svg>
