<svg width="16" height="14" viewBox="0 0 16 14" fill="none" xmlns="http://www.w3.org/2000/svg">
<path fill-rule="evenodd" clip-rule="evenodd" d="M13.5018 2.77801C12.2391 1.51534 10.2289 1.404 8.83454 2.51952L7.99999 3.18716L7.16544 2.51952C5.77105 1.404 3.76087 1.51534 2.4982 2.77801C1.21211 4.0641 1.13427 6.09637 2.33929 7.40904C3.38806 8.55151 4.60991 9.81697 5.70983 10.7924C6.261 11.2812 6.76656 11.6836 7.19411 11.96C7.65558 12.2583 7.91306 12.3334 7.99999 12.3334C8.08693 12.3334 8.34441 12.2583 8.80588 11.96C9.23343 11.6836 9.73898 11.2812 10.2902 10.7924C11.3901 9.81697 12.6119 8.55151 13.6607 7.40904C14.8657 6.09637 14.7879 4.0641 13.5018 2.77801ZM8.00162 1.47836C9.92653 -0.061573 12.7015 0.0921186 14.4446 1.8352C16.2094 3.60003 16.3557 6.44493 14.6429 8.31071C13.5835 9.46478 12.3256 10.7694 11.1748 11.79C10.6006 12.2992 10.038 12.7512 9.52971 13.0797C9.05534 13.3864 8.50926 13.6667 7.99999 13.6667C7.49073 13.6667 6.94465 13.3864 6.47027 13.0797C5.96197 12.7512 5.39939 12.2992 4.82518 11.79C3.67434 10.7694 2.41648 9.46477 1.35706 8.31071C-0.355718 6.44492 -0.209436 3.60003 1.55539 1.8352C3.29847 0.0921187 6.07346 -0.0615729 7.99837 1.47836L7.99999 1.47966L8.00162 1.47836Z" fill="#293644"/>
</svg>
