<svg width="20" height="20" viewBox="0 0 20 20" fill="none" xmlns="http://www.w3.org/2000/svg">
<path fill-rule="evenodd" clip-rule="evenodd" d="M19.4487 3.66028C19.4408 4.12045 19.0614 4.48711 18.6012 4.47924L11.7933 4.36284C11.4335 5.32782 10.4957 6.00756 9.40738 5.98896C8.31902 5.97035 7.40502 5.25894 7.07847 4.28222L1.93697 4.19431C1.4768 4.18645 1.11013 3.80703 1.118 3.34686C1.12587 2.88669 1.50529 2.52002 1.96546 2.52789L7.10696 2.6158C7.46671 1.65082 8.4045 0.971078 9.49286 0.989687C10.5812 1.0083 11.4952 1.7197 11.8218 2.69642L18.6297 2.81282C19.0899 2.82069 19.4565 3.20011 19.4487 3.66028ZM19.3347 10.326C19.3268 10.7861 18.9474 11.1528 18.4872 11.1449L15.8454 11.0998C15.4856 12.0647 14.5478 12.7445 13.4595 12.7259C12.3711 12.7073 11.4571 11.9959 11.1306 11.0191L1.823 10.86C1.36283 10.8521 0.996162 10.4727 1.00403 10.0125C1.0119 9.55238 1.39132 9.18571 1.85149 9.19358L11.159 9.35273C11.5188 8.38774 12.4566 7.708 13.5449 7.72661C14.6333 7.74522 15.5473 8.45662 15.8738 9.43334L18.5157 9.47851C18.9759 9.48638 19.3426 9.8658 19.3347 10.326ZM19.2207 16.9917C19.2128 17.4518 18.8334 17.8185 18.3733 17.8106L9.06569 17.6515C8.70595 18.6165 7.76816 19.2962 6.6798 19.2776C5.59144 19.259 4.67744 18.5476 4.35089 17.5709L1.70902 17.5257C1.24885 17.5178 0.88219 17.1384 0.890058 16.6782C0.897927 16.2181 1.27735 15.8514 1.73752 15.8593L4.37938 15.9044C4.73913 14.9395 5.67692 14.2597 6.76528 14.2783C7.85363 14.2969 8.76764 15.0083 9.09419 15.9851L18.4017 16.1442C18.8619 16.1521 19.2286 16.5315 19.2207 16.9917ZM14.3354 10.2405C14.3433 9.78032 13.9766 9.4009 13.5164 9.39303C13.0563 9.38517 12.6769 9.75183 12.669 10.212C12.6611 10.6722 13.0278 11.0516 13.488 11.0595C13.9481 11.0673 14.3275 10.7007 14.3354 10.2405ZM10.2833 3.50357C10.2912 3.0434 9.92453 2.66398 9.46436 2.65611C9.00419 2.64824 8.62477 3.0149 8.61691 3.47507C8.60904 3.93524 8.9757 4.31466 9.43587 4.32253C9.89604 4.3304 10.2755 3.96374 10.2833 3.50357ZM7.55575 16.7922C7.56362 16.332 7.19696 15.9526 6.73679 15.9448C6.27661 15.9369 5.8972 16.3035 5.88933 16.7637C5.88146 17.2239 6.24812 17.6033 6.70829 17.6112C7.16846 17.619 7.54788 17.2524 7.55575 16.7922Z" fill="white"/>
</svg>
