<svg width="21" height="21" viewBox="0 0 21 21" fill="none" xmlns="http://www.w3.org/2000/svg">
<path d="M0.950049 8.57499L5.15005 4.37499C5.38338 4.14166 5.65838 3.97499 5.97505 3.87499C6.29172 3.77499 6.61671 3.75833 6.95005 3.82499L8.25005 4.09999C7.35005 5.16666 6.64172 6.13333 6.12505 6.99999C5.60838 7.86666 5.10838 8.91666 4.62505 10.15L0.950049 8.57499ZM6.07505 10.85C6.45838 9.64999 6.97938 8.51666 7.63805 7.44999C8.29671 6.38333 9.09238 5.38333 10.025 4.44999C11.4917 2.98333 13.1667 1.88733 15.05 1.16199C16.9334 0.436659 18.6917 0.215992 20.3251 0.499992C20.6084 2.13333 20.3917 3.89166 19.675 5.77499C18.9584 7.65833 17.8667 9.33333 16.4 10.8C15.4834 11.7167 14.4834 12.5127 13.4 13.188C12.3167 13.8633 11.175 14.3923 9.97505 14.775L6.07505 10.85ZM12.975 7.84999C13.3584 8.23333 13.8294 8.42499 14.388 8.42499C14.9467 8.42499 15.4174 8.23333 15.8 7.84999C16.1834 7.46666 16.375 6.99599 16.375 6.43799C16.375 5.87999 16.1834 5.40899 15.8 5.02499C15.4167 4.64166 14.9457 4.44999 14.387 4.44999C13.8284 4.44999 13.3577 4.64166 12.975 5.02499C12.5917 5.40833 12.4 5.87933 12.4 6.43799C12.4 6.99666 12.5917 7.46733 12.975 7.84999ZM12.275 19.875L10.675 16.2C11.9084 15.7167 12.9627 15.2167 13.838 14.7C14.7134 14.1833 15.684 13.475 16.75 12.575L17 13.875C17.0667 14.2083 17.0501 14.5377 16.9501 14.863C16.85 15.1883 16.6834 15.4673 16.45 15.7L12.275 19.875ZM2.55005 14.05C3.13338 13.4667 3.84172 13.1707 4.67505 13.162C5.50838 13.1533 6.21672 13.441 6.80005 14.025C7.38338 14.6083 7.67505 15.3167 7.67505 16.15C7.67505 16.9833 7.38338 17.6917 6.80005 18.275C6.38338 18.6917 5.68772 19.05 4.71305 19.35C3.73838 19.65 2.39238 19.9167 0.675049 20.15C0.908382 18.4333 1.17505 17.0917 1.47505 16.125C1.77505 15.1583 2.13338 14.4667 2.55005 14.05Z" fill="#282828" fill-opacity="0.4"/>
</svg>
