<svg width="8" height="11" viewBox="0 0 8 11" fill="none" xmlns="http://www.w3.org/2000/svg">
<path fill-rule="evenodd" clip-rule="evenodd" d="M4 1.33333C2.38917 1.33333 1.08333 2.63917 1.08333 4.25C1.08333 5.42945 1.60875 6.57311 2.2595 7.53097C2.89185 8.46173 3.6165 9.17886 4 9.52957C4.3835 9.17886 5.10815 8.46173 5.7405 7.53097C6.39125 6.57311 6.91667 5.42945 6.91667 4.25C6.91667 2.63917 5.61083 1.33333 4 1.33333ZM0.25 4.25C0.25 2.17893 1.92893 0.5 4 0.5C6.07107 0.5 7.75 2.17893 7.75 4.25C7.75 5.66742 7.12448 6.97676 6.4298 7.99927C5.73166 9.02687 4.93573 9.80568 4.5335 10.1708C4.2286 10.4476 3.7714 10.4476 3.4665 10.1708C3.06427 9.80568 2.26834 9.02687 1.5702 7.99927C0.875516 6.97676 0.25 5.66742 0.25 4.25ZM4 3.41667C3.53976 3.41667 3.16667 3.78976 3.16667 4.25C3.16667 4.71024 3.53976 5.08333 4 5.08333C4.46024 5.08333 4.83333 4.71024 4.83333 4.25C4.83333 3.78976 4.46024 3.41667 4 3.41667ZM2.33333 4.25C2.33333 3.32953 3.07953 2.58333 4 2.58333C4.92047 2.58333 5.66667 3.32953 5.66667 4.25C5.66667 5.17047 4.92047 5.91667 4 5.91667C3.07953 5.91667 2.33333 5.17047 2.33333 4.25Z" fill="#403F3F"/>
</svg>
