<svg width="16" height="20" viewBox="0 0 16 20" fill="none" xmlns="http://www.w3.org/2000/svg">
<path fill-rule="evenodd" clip-rule="evenodd" d="M8 1.66667C6.15905 1.66667 4.66667 3.15905 4.66667 5V8.33333H11.3333V5C11.3333 3.15905 9.84095 1.66667 8 1.66667ZM13 8.33333V5C13 2.23858 10.7614 0 8 0C5.23858 0 3 2.23858 3 5V8.33333C1.61929 8.33333 0.5 9.45262 0.5 10.8333V17.5C0.5 18.8807 1.61929 20 3 20H13C14.3807 20 15.5 18.8807 15.5 17.5V10.8333C15.5 9.45262 14.3807 8.33333 13 8.33333ZM3 10C2.53976 10 2.16667 10.3731 2.16667 10.8333V17.5C2.16667 17.9602 2.53976 18.3333 3 18.3333H13C13.4602 18.3333 13.8333 17.9602 13.8333 17.5V10.8333C13.8333 10.3731 13.4602 10 13 10H3ZM8 12.5C8.46024 12.5 8.83333 12.8731 8.83333 13.3333V15C8.83333 15.4602 8.46024 15.8333 8 15.8333C7.53976 15.8333 7.16667 15.4602 7.16667 15V13.3333C7.16667 12.8731 7.53976 12.5 8 12.5Z" fill="#282828" fill-opacity="0.8"/>
</svg>
