<svg width="65" height="64" viewBox="0 0 65 64" fill="none" xmlns="http://www.w3.org/2000/svg">
<g clip-path="url(#clip0_1178_5685)">
<path fill-rule="evenodd" clip-rule="evenodd" d="M8.5 13.3333C7.02724 13.3333 5.83333 14.5272 5.83333 16V52.2288L11.9477 46.1144C12.4478 45.6143 13.1261 45.3333 13.8333 45.3333H56.5C57.9728 45.3333 59.1667 44.1394 59.1667 42.6667V16C59.1667 14.5272 57.9728 13.3333 56.5 13.3333H8.5ZM0.5 16C0.5 11.5817 4.08172 8 8.5 8H56.5C60.9183 8 64.5 11.5817 64.5 16V42.6667C64.5 47.0849 60.9183 50.6667 56.5 50.6667H14.9379L9.60457 56C6.24476 59.3598 0.5 56.9803 0.5 52.2288V16ZM19.1667 24C19.1667 22.5272 20.3606 21.3333 21.8333 21.3333H29.8333C31.3061 21.3333 32.5 22.5272 32.5 24C32.5 25.4728 31.3061 26.6667 29.8333 26.6667H21.8333C20.3606 26.6667 19.1667 25.4728 19.1667 24ZM19.1667 34.6667C19.1667 33.1939 20.3606 32 21.8333 32H43.1667C44.6394 32 45.8333 33.1939 45.8333 34.6667C45.8333 36.1394 44.6394 37.3333 43.1667 37.3333H21.8333C20.3606 37.3333 19.1667 36.1394 19.1667 34.6667Z" fill="#BAD9DB"/>
</g>
<defs>
<clipPath id="clip0_1178_5685">
<rect width="64" height="64" fill="white" transform="translate(0.5)"/>
</clipPath>
</defs>
</svg>
