<svg width="22" height="20" viewBox="0 0 22 20" fill="none" xmlns="http://www.w3.org/2000/svg">
<path d="M19.3334 0.833252H2.66671C2.11417 0.833252 1.58427 1.02641 1.19357 1.37022C0.802867 1.71404 0.583374 2.18036 0.583374 2.66659V19.1666L4.75004 15.4999H19.3334C19.8859 15.4999 20.4158 15.3068 20.8065 14.9629C21.1972 14.6191 21.4167 14.1528 21.4167 13.6666V2.66659C21.4167 2.18036 21.1972 1.71404 20.8065 1.37022C20.4158 1.02641 19.8859 0.833252 19.3334 0.833252ZM4.75004 7.24992H17.25V9.08325H4.75004M13.0834 11.8333H4.75004V9.99992H13.0834M17.25 6.33325H4.75004V4.49992H17.25" fill="#282828" fill-opacity="0.4"/>
</svg>
