<svg width="12" height="16" viewBox="0 0 12 16" fill="none" xmlns="http://www.w3.org/2000/svg">
<path fill-rule="evenodd" clip-rule="evenodd" d="M0.666748 2C0.666748 0.89543 1.56218 0 2.66675 0H9.33341C10.438 0 11.3334 0.895431 11.3334 2V14C11.3334 15.1046 10.438 16 9.33341 16H2.66675C1.56218 16 0.666748 15.1046 0.666748 14V2ZM2.66675 1.33333C2.29856 1.33333 2.00008 1.63181 2.00008 2V14C2.00008 14.3682 2.29856 14.6667 2.66675 14.6667H9.33341C9.7016 14.6667 10.0001 14.3682 10.0001 14V2C10.0001 1.63181 9.7016 1.33333 9.33341 1.33333H2.66675ZM3.33341 4C3.33341 3.63181 3.63189 3.33333 4.00008 3.33333H8.00008C8.36827 3.33333 8.66675 3.63181 8.66675 4C8.66675 4.36819 8.36827 4.66667 8.00008 4.66667H4.00008C3.63189 4.66667 3.33341 4.36819 3.33341 4ZM3.33341 7.33333C3.33341 6.96514 3.63189 6.66667 4.00008 6.66667H4.66675C5.03494 6.66667 5.33341 6.96514 5.33341 7.33333C5.33341 7.70152 5.03494 8 4.66675 8H4.00008C3.63189 8 3.33341 7.70152 3.33341 7.33333ZM6.66675 7.33333C6.66675 6.96514 6.96522 6.66667 7.33341 6.66667H8.00008C8.36827 6.66667 8.66675 6.96514 8.66675 7.33333C8.66675 7.70152 8.36827 8 8.00008 8H7.33341C6.96522 8 6.66675 7.70152 6.66675 7.33333ZM3.33341 10C3.33341 9.63181 3.63189 9.33333 4.00008 9.33333H4.66675C5.03494 9.33333 5.33341 9.63181 5.33341 10C5.33341 10.3682 5.03494 10.6667 4.66675 10.6667H4.00008C3.63189 10.6667 3.33341 10.3682 3.33341 10ZM6.66675 10C6.66675 9.63181 6.96522 9.33333 7.33341 9.33333H8.00008C8.36827 9.33333 8.66675 9.63181 8.66675 10C8.66675 10.3682 8.36827 10.6667 8.00008 10.6667H7.33341C6.96522 10.6667 6.66675 10.3682 6.66675 10ZM3.33341 12.6667C3.33341 12.2985 3.63189 12 4.00008 12H4.66675C5.03494 12 5.33341 12.2985 5.33341 12.6667C5.33341 13.0349 5.03494 13.3333 4.66675 13.3333H4.00008C3.63189 13.3333 3.33341 13.0349 3.33341 12.6667ZM6.66675 12.6667C6.66675 12.2985 6.96522 12 7.33341 12H8.00008C8.36827 12 8.66675 12.2985 8.66675 12.6667C8.66675 13.0349 8.36827 13.3333 8.00008 13.3333H7.33341C6.96522 13.3333 6.66675 13.0349 6.66675 12.6667Z" fill="#ACACAC"/>
</svg>
