<svg width="18" height="17" viewBox="0 0 18 17" fill="none" xmlns="http://www.w3.org/2000/svg">
<g id="star">
<g id="vuesax/bold/star">
<g id="star_2">
<path id="Vector" d="M10.1533 2.83977L11.3266 5.18643C11.4866 5.5131 11.9133 5.82643 12.2733 5.88643L14.3999 6.23977C15.7599 6.46643 16.0799 7.4531 15.0999 8.42643L13.4466 10.0798C13.1666 10.3598 13.0133 10.8998 13.0999 11.2864L13.5733 13.3331C13.9466 14.9531 13.0866 15.5798 11.6533 14.7331L9.65994 13.5531C9.29994 13.3398 8.70661 13.3398 8.33994 13.5531L6.34661 14.7331C4.91994 15.5798 4.05327 14.9464 4.42661 13.3331L4.89994 11.2864C4.98661 10.8998 4.83327 10.3598 4.55327 10.0798L2.89994 8.42643C1.92661 7.4531 2.23994 6.46643 3.59994 6.23977L5.72661 5.88643C6.07994 5.82643 6.50661 5.5131 6.66661 5.18643L7.83994 2.83977C8.47994 1.56643 9.51994 1.56643 10.1533 2.83977Z" fill="#F2C94C" stroke="#F2C94C" stroke-width="3" stroke-linecap="round" stroke-linejoin="round"/>
</g>
</g>
</g>
</svg>
