<svg width="20" height="20" viewBox="0 0 20 20" fill="none" xmlns="http://www.w3.org/2000/svg">
<path fill-rule="evenodd" clip-rule="evenodd" d="M8.33331 2.49992C5.11165 2.49992 2.49998 5.11159 2.49998 8.33325C2.49998 11.5549 5.11165 14.1666 8.33331 14.1666C9.94437 14.1666 11.4016 13.5146 12.4581 12.458C13.5146 11.4015 14.1666 9.94431 14.1666 8.33325C14.1666 5.11159 11.555 2.49992 8.33331 2.49992ZM0.833313 8.33325C0.833313 4.19112 4.19118 0.833252 8.33331 0.833252C12.4754 0.833252 15.8333 4.19112 15.8333 8.33325C15.8333 10.1038 15.219 11.7319 14.1932 13.0146L18.9226 17.744C19.248 18.0694 19.248 18.5971 18.9226 18.9225C18.5971 19.2479 18.0695 19.2479 17.7441 18.9225L13.0147 14.1931C11.732 15.219 10.1038 15.8333 8.33331 15.8333C4.19118 15.8333 0.833313 12.4754 0.833313 8.33325Z" fill="#282828" fill-opacity="0.6"/>
</svg>
