<svg width="21" height="23" viewBox="0 0 21 23" fill="none" xmlns="http://www.w3.org/2000/svg">
<path d="M9.20829 22.6667V19.1667H0.166626V16.8333H20.8333V19.1667H11.7916V22.6667H9.20829ZM6.62496 10.4167C6.99093 10.4167 7.29792 10.3047 7.54592 10.0807C7.79392 9.85667 7.91749 9.57978 7.91663 9.25C7.91663 8.91944 7.79262 8.64217 7.54462 8.41817C7.29663 8.19417 6.99007 8.08256 6.62496 8.08333C6.25899 8.08333 5.952 8.19533 5.704 8.41933C5.456 8.64333 5.33243 8.92022 5.33329 9.25C5.33329 9.58055 5.45729 9.85783 5.70529 10.0818C5.95329 10.3058 6.25985 10.4174 6.62496 10.4167ZM14.375 10.4167C14.7409 10.4167 15.0479 10.3047 15.2959 10.0807C15.5439 9.85667 15.6675 9.57978 15.6666 9.25C15.6666 8.91944 15.5426 8.64217 15.2946 8.41817C15.0466 8.19417 14.7401 8.08256 14.375 8.08333C14.009 8.08333 13.702 8.19533 13.454 8.41933C13.206 8.64333 13.0824 8.92022 13.0833 9.25C13.0833 9.58055 13.2073 9.85783 13.4553 10.0818C13.7033 10.3058 14.0098 10.4174 14.375 10.4167ZM1.45829 7.03333L3.58954 1.43333C3.69718 1.16111 3.875 0.9375 4.123 0.7625C4.371 0.5875 4.64526 0.5 4.94579 0.5H16.0541C16.3555 0.5 16.6302 0.5875 16.8782 0.7625C17.1262 0.9375 17.3036 1.16111 17.4104 1.43333L19.5416 7.03333V14.7333C19.5416 15.0056 19.4447 15.2292 19.251 15.4042C19.0572 15.5792 18.8097 15.6667 18.5083 15.6667H17.9916C17.6902 15.6667 17.4427 15.5792 17.2489 15.4042C17.0552 15.2292 16.9583 15.0056 16.9583 14.7333V13.3333H4.04163V14.7333C4.04163 15.0056 3.94475 15.2292 3.751 15.4042C3.55725 15.5792 3.30968 15.6667 3.00829 15.6667H2.49163C2.19024 15.6667 1.94267 15.5792 1.74892 15.4042C1.55517 15.2292 1.45829 15.0056 1.45829 14.7333V7.03333ZM4.88121 5.16667H16.1187L15.2145 2.83333H5.78538L4.88121 5.16667Z" fill="#282828" fill-opacity="0.4"/>
</svg>
