<svg width="34" height="34" viewBox="0 0 34 34" fill="none" xmlns="http://www.w3.org/2000/svg">
<g id="6. Pointer" clip-path="url(#clip0_1178_5904)">
<path id="Vector (Stroke)" fill-rule="evenodd" clip-rule="evenodd" d="M28.9984 17.8253C29.8288 17.4828 29.8217 16.3043 28.9873 15.9718L12.4683 9.39014C11.5999 9.04413 10.7738 9.9728 11.2186 10.795L13.8066 15.5779C14.2824 16.4574 14.2888 17.5162 13.8235 18.4014L11.2932 23.2151C10.8583 24.0426 11.6954 24.9612 12.5596 24.6048L28.9984 17.8253ZM29.7275 14.1139C32.2308 15.1112 32.252 18.6468 29.7609 19.6742L13.3222 26.4538C10.7295 27.523 8.21802 24.7669 9.5229 22.2845L12.0532 17.4708C12.2083 17.1758 12.2062 16.8229 12.0475 16.5297L9.45962 11.7467C8.12503 9.28017 10.6033 6.49415 13.2086 7.53218L29.7275 14.1139Z" fill="#282828" fill-opacity="0.6"/>
</g>
<defs>
<clipPath id="clip0_1178_5904">
<rect width="24" height="24" fill="white" transform="translate(16.8682) rotate(44.656)"/>
</clipPath>
</defs>
</svg>
