<svg width="16" height="16" viewBox="0 0 16 16" fill="none" xmlns="http://www.w3.org/2000/svg">
<g id="26. Delivered" clip-path="url(#clip0_1666_10327)">
<path id="Vector (Stroke)" fill-rule="evenodd" clip-rule="evenodd" d="M12.4714 4.19526C12.7318 4.45561 12.7318 4.87772 12.4714 5.13807L5.13807 12.4714C4.87772 12.7318 4.45561 12.7318 4.19526 12.4714L0.195262 8.4714C-0.0650874 8.21106 -0.0650874 7.78894 0.195262 7.5286C0.455612 7.26825 0.877722 7.26825 1.13807 7.5286L4.66667 11.0572L5.39052 10.3333L3.5286 8.4714C3.26825 8.21106 3.26825 7.78894 3.5286 7.5286C3.78894 7.26825 4.21106 7.26825 4.4714 7.5286L6.33333 9.39052L11.5286 4.19526C11.7889 3.93491 12.2111 3.93491 12.4714 4.19526ZM15.8047 4.19526C16.0651 4.45561 16.0651 4.87772 15.8047 5.13807L8.47141 12.4714C8.21106 12.7318 7.78895 12.7318 7.5286 12.4714C7.26825 12.2111 7.26825 11.7889 7.5286 11.5286L14.8619 4.19526C15.1223 3.93491 15.5444 3.93491 15.8047 4.19526Z" fill="#ACACAC"/>
</g>
<defs>
<clipPath id="clip0_1666_10327">
<rect width="16" height="16" fill="white"/>
</clipPath>
</defs>
</svg>
