<svg width="18" height="24" viewBox="0 0 18 24" fill="none" xmlns="http://www.w3.org/2000/svg">
<path fill-rule="evenodd" clip-rule="evenodd" d="M8.29289 0.292893C8.68342 -0.0976311 9.31658 -0.0976311 9.70711 0.292893L12.7071 3.29289C13.0976 3.68342 13.0976 4.31658 12.7071 4.70711C12.3166 5.09763 11.6834 5.09763 11.2929 4.70711L10 3.41421V15C10 15.5523 9.55229 16 9 16C8.44772 16 8 15.5523 8 15V3.41421L6.70711 4.70711C6.31658 5.09763 5.68342 5.09763 5.29289 4.70711C4.90237 4.31658 4.90237 3.68342 5.29289 3.29289L8.29289 0.292893ZM3 9C2.44772 9 2 9.44772 2 10V21C2 21.5523 2.44772 22 3 22H15C15.5523 22 16 21.5523 16 21V10C16 9.44772 15.5523 9 15 9H13C12.4477 9 12 8.55228 12 8C12 7.44772 12.4477 7 13 7H15C16.6569 7 18 8.34315 18 10V21C18 22.6569 16.6569 24 15 24H3C1.34315 24 0 22.6569 0 21V10C0 8.34315 1.34315 7 3 7H5C5.55228 7 6 7.44772 6 8C6 8.55228 5.55228 9 5 9H3Z" fill="#073335"/>
</svg>
