<svg width="65" height="64" viewBox="0 0 65 64" fill="none" xmlns="http://www.w3.org/2000/svg">
<g id="4. Warning">
<path id="Vector (Stroke)" fill-rule="evenodd" clip-rule="evenodd" d="M34.7867 11.6612C33.7509 9.93498 31.2491 9.93498 30.2134 11.6612L7.63306 49.2951C6.56661 51.0725 7.84692 53.3337 9.9197 53.3337H55.0803C57.1531 53.3337 58.4334 51.0725 57.367 49.2951L34.7867 11.6612ZM25.6401 8.91723C28.7473 3.73852 36.2527 3.73853 39.36 8.91724L61.9403 46.5511C65.1396 51.8833 61.2987 58.6671 55.0803 58.6671H9.9197C3.70134 58.6671 -0.139554 51.8833 3.05976 46.5511L25.6401 8.91723ZM32.5 21.3337C33.9728 21.3337 35.1667 22.5276 35.1667 24.0004V34.6671C35.1667 36.1398 33.9728 37.3337 32.5 37.3337C31.0273 37.3337 29.8334 36.1398 29.8334 34.6671V24.0004C29.8334 22.5276 31.0273 21.3337 32.5 21.3337ZM32.5 40.0004C33.9728 40.0004 35.1667 41.1943 35.1667 42.6671V45.3337C35.1667 46.8065 33.9728 48.0004 32.5 48.0004C31.0273 48.0004 29.8334 46.8065 29.8334 45.3337V42.6671C29.8334 41.1943 31.0273 40.0004 32.5 40.0004Z" fill="#E63F48" fill-opacity="0.8"/>
</g>
</svg>
